<svg id="_x33_0" enable-background="new 0 0 64 64" height="512" viewBox="0 0 64 64" width="512" xmlns="http://www.w3.org/2000/svg"><g><g><g><path d="m35 47.72v12.28c0 1.1-.9 2-2 2h-2c-1.1 0-2-.9-2-2v-12.28c.97.18 1.98.28 3 .28s2.03-.1 3-.28z" fill="#b27946"/></g><g><path d="m32 16c8.84 0 16 7.16 16 16 0 7.82-5.6 14.32-13 15.72-.97.18-1.98.28-3 .28s-2.03-.1-3-.28c-7.4-1.4-13-7.9-13-15.72 0-8.84 7.16-16 16-16zm12 16c0-6.63-5.37-12-12-12s-12 5.37-12 12c0 3.92 1.88 7.4 4.77 9.58 2.01 1.52 4.51 2.42 7.23 2.42s5.22-.9 7.23-2.42c2.89-2.18 4.77-5.66 4.77-9.58z" fill="#b4dd7f"/></g><g><path d="m32 37c-1.72 0-3.31.54-4.61 1.46-1.12.79-2.03 1.86-2.62 3.12-2.89-2.18-4.77-5.66-4.77-9.58 0-6.63 5.37-12 12-12s12 5.37 12 12c0 3.92-1.88 7.4-4.77 9.58-.59-1.26-1.5-2.33-2.62-3.12-.09-.06-.18-.13-.28-.19-1.25-.8-2.73-1.27-4.33-1.27 2.21 0 4-1.79 4-4l1.23-1.84c.5-.76.77-1.65.77-2.55 0-2.55-2.06-4.61-4.61-4.61h-1.39-1.39c-1.27 0-2.43.52-3.26 1.35s-1.35 1.99-1.35 3.26c0 .9.27 1.79.77 2.55l1.23 1.84c0 1.1.45 2.1 1.17 2.83.73.72 1.73 1.17 2.83 1.17z" fill="#4fc1e9"/></g><g><path d="m36.61 38.46c-.09-.06-.18-.13-.28-.19-1.25-.8-2.73-1.27-4.33-1.27-1.72 0-3.31.54-4.61 1.46-1.12.79-2.03 1.86-2.62 3.12 2.01 1.52 4.51 2.42 7.23 2.42s5.22-.9 7.23-2.42c-.59-1.26-1.5-2.33-2.62-3.12z" fill="#b27946"/></g><g><path d="m36 31.24v1.76c0 2.21-1.79 4-4 4-1.1 0-2.1-.45-2.83-1.17-.72-.73-1.17-1.73-1.17-2.83v-1.76c0-.76.43-1.45 1.11-1.79l2.89-1.45 2.89 1.45c.68.34 1.11 1.03 1.11 1.79z" fill="#f0d0b4"/></g><g><path d="m33.39 24h-1.39-1.39c-1.27 0-2.43.52-3.26 1.35s-1.35 1.99-1.35 3.26c0 .9.27 1.79.77 2.55l1.23 1.84v-1.76c0-.76.43-1.45 1.11-1.79l2.89-1.45 2.89 1.45c.68.34 1.11 1.03 1.11 1.79v1.76l1.23-1.84c.5-.76.77-1.65.77-2.55 0-2.55-2.06-4.61-4.61-4.61z" fill="#b27946"/></g><g><path d="m62 32-6 4v-2h-4v-4h4v-2z" fill="#fcd770"/></g><g><path d="m32 2 4 6h-2v4h-4v-4h-2z" fill="#fcd770"/></g><g><path d="m53 11-1.33 6.67-1.34-1.34-2.66 2.67-2.67-2.67 2.67-2.66-1.34-1.34z" fill="#fcd770"/></g><g><path d="m12 30v4h-4v2l-6-4 6-4v2z" fill="#fcd770"/></g><g><path d="m51.67 46.33 1.33 6.67-6.67-1.33 1.34-1.34-2.67-2.66 2.67-2.67 2.66 2.67z" fill="#fcd770"/></g><g><path d="m19 16.33-2.67 2.67-2.66-2.67-1.34 1.34-1.33-6.67 6.67 1.33-1.34 1.34z" fill="#fcd770"/></g><g><path d="m19 47.67-2.67 2.66 1.34 1.34-6.67 1.33 1.33-6.67 1.34 1.34 2.66-2.67z" fill="#fcd770"/></g></g><g><path d="m45 32c0-7.168-5.832-13-13-13s-13 5.832-13 13 5.832 13 13 13 13-5.832 13-13zm-18-3.395c0-1.988 1.617-3.605 3.605-3.605h.395v2.382l-2.342 1.171c-.623.312-1.1.817-1.379 1.421-.178-.433-.279-.894-.279-1.369zm10.909 12.658c-1.074.688-2.273 1.196-3.557 1.478l2.388-2.866c.444.408.84.871 1.169 1.388zm-4.909-.026v-3.164c.732.107 1.431.34 2.084.663zm3.721-11.263c-.28-.604-.756-1.109-1.379-1.421l-2.342-1.171v-2.382h.395c1.988 0 3.605 1.617 3.605 3.605 0 .475-.101.936-.279 1.369zm-7.721 3.026v-1.764c0-.382.212-.725.553-.895l2.447-1.223 2.447 1.224c.341.17.553.512.553.894v1.764c0 1.654-1.346 3-3 3s-3-1.346-3-3zm2 8.237-2.084-2.501c.653-.323 1.352-.556 2.084-.663zm-3.74-1.362 2.388 2.866c-1.285-.281-2.483-.79-3.557-1.478.329-.517.725-.98 1.169-1.388zm-6.26-7.875c0-6.065 4.935-11 11-11s11 4.935 11 11c0 3.166-1.352 6.016-3.501 8.025-1.012-1.519-2.471-2.671-4.139-3.348.916-.838 1.508-2.007 1.603-3.32l1.095-1.642c.616-.925.941-2 .941-3.109.001-3.091-2.514-5.606-5.604-5.606h-2.789c-3.091 0-5.606 2.515-5.606 5.605 0 1.109.325 2.185.941 3.109l1.095 1.642c.095 1.313.687 2.482 1.603 3.32-1.668.677-3.126 1.829-4.139 3.348-2.148-2.008-3.5-4.858-3.5-8.024z"/><path d="m49 32c0-9.374-7.626-17-17-17s-17 7.626-17 17c0 7.994 5.553 14.699 13 16.505v11.495c0 1.654 1.346 3 3 3h2c1.654 0 3-1.346 3-3v-11.495c7.447-1.806 13-8.511 13-16.505zm-32 0c0-8.271 6.729-15 15-15s15 6.729 15 15-6.729 15-15 15-15-6.729-15-15zm17 28c0 .552-.448 1-1 1h-2c-.552 0-1-.448-1-1v-11.128c.657.077 1.322.128 2 .128s1.343-.051 2-.128z"/><path d="m63.803 32-8.803-5.868v2.868h-4v6h4v2.868zm-10.803 1v-2h4v-1.132l3.197 2.132-3.197 2.132v-1.132z"/><path d="m47.667 20.414 2.666-2.667 1.948 1.948 1.993-9.97-9.97 1.993 1.948 1.948-2.667 2.666zm.694-7.467 3.364-.673-.673 3.364-.72-.72-2.666 2.667-1.253-1.253 2.667-2.666z"/><path d="m29 13h6v-4h2.868l-5.868-8.803-5.868 8.803h2.868zm3-9.197 2.132 3.197h-1.132v4h-2v-4h-1.132z"/><path d="m13.667 17.747 2.666 2.667 4.081-4.081-2.667-2.666 1.948-1.948-9.97-1.993 1.993 9.97zm1.972-4.8-.72.72 2.667 2.666-1.253 1.253-2.666-2.667-.72.72-.673-3.364z"/><path d="m13 29h-4v-2.868l-8.803 5.868 8.803 5.868v-2.868h4zm-2 4h-4v1.132l-3.197-2.132 3.197-2.132v1.132h4z"/><path d="m16.333 43.586-2.666 2.667-1.948-1.948-1.993 9.97 9.97-1.993-1.948-1.948 2.667-2.666zm-.694 7.467-3.364.673.673-3.364.72.72 2.666-2.667 1.253 1.253-2.667 2.666z"/><path d="m50.333 46.253-2.666-2.667-4.081 4.081 2.667 2.666-1.948 1.948 9.97 1.993-1.993-9.97zm-1.972 4.8.72-.72-2.667-2.666 1.253-1.253 2.666 2.667.72-.72.673 3.364z"/></g></g></svg>