<svg height="496pt" viewBox="0 0 496 496" width="496pt" xmlns="http://www.w3.org/2000/svg"><path d="m194.238281 361.839844-106.238281 126.160156-80-80 126.160156-106.238281 1.839844 2.238281 56 56zm0 0" fill="#dfb28b"/><path d="m116 404-20 20c-6.640625 0-12.640625-2.71875-16.960938-7.039062-4.320312-4.320313-7.039062-10.320313-7.039062-16.960938l20-20zm0 0" fill="#ff826e"/><path d="m136 384-20 20-24-24 20-20c6.640625 0 12.640625 2.71875 16.960938 7.039062 4.320312 4.320313 7.039062 10.320313 7.039062 16.960938zm0 0" fill="#b4dd7f"/><path d="m88 488h-48l-32-32v-48zm0 0" fill="#aab2bd"/><path d="m172 292 44 44-21.761719 25.839844-2.238281-1.839844-56-56-1.839844-2.238281 25.839844-21.761719zm0 0" fill="#ffeaa7"/><path d="m235.519531 292.480469-31.519531 31.519531-32-32 31.519531-31.519531c8.800781 12.320312 19.679688 23.199219 32 32zm0 0" fill="#ccd1d9"/><path d="m463.601562 168.160156c.160157 2.640625.398438 5.199219.398438 7.839844 0 79.519531-64.480469 144-144 144-31.601562 0-60.800781-10.160156-84.480469-27.519531-12.320312-8.800781-23.199219-19.679688-32-32-17.359375-23.679688-27.519531-52.878907-27.519531-84.480469 0-79.519531 64.480469-144 144-144 2.640625 0 5.199219.238281 7.839844.398438l-20.71875 20.722656 6.800781 11.199218c-59.042969 3.199219-105.921875 51.917969-105.921875 111.679688 0 61.839844 50.160156 112 112 112 59.761719 0 108.480469-46.878906 111.679688-105.921875l11.199218 6.800781zm0 0" fill="#ccd1d9"/><path d="m208 176c0-59.761719 46.878906-108.480469 105.921875-111.679688l4.71875 7.839844c-.402344.800782-.640625 1.601563-.960937 2.398438l-21.679688 5.441406v48l21.679688 5.441406c.320312.796875.558593 1.597656.960937 2.398438l-11.519531 19.039062 34 34 19.039062-11.519531c.800782.402344 1.601563.640625 2.398438.960937l5.441406 21.679688h48l5.441406-21.679688c.796875-.320312 1.597656-.558593 2.398438-.960937l7.839844 4.71875c-3.199219 59.042969-51.917969 105.921875-111.679688 105.921875-61.839844 0-112-50.160156-112-112zm0 0" fill="#69d6f4"/><path d="m488 80v48l-21.679688 5.441406c-.320312.796875-.558593 1.597656-.960937 2.398438l11.519531 19.039062-13.277344 13.28125-20.722656 20.71875-11.199218-6.800781-7.839844-4.71875c-.800782.402344-1.601563.640625-2.398438.960937l-5.441406 21.679688h-48l-5.441406-21.679688c-.796875-.320312-1.597656-.558593-2.398438-.960937l-19.039062 11.519531-34-34 11.519531-19.039062c-.402344-.800782-.640625-1.601563-.960937-2.398438l-21.679688-5.441406v-48l21.679688-5.441406c.320312-.796875.558593-1.597656.960937-2.398438l-4.71875-7.839844-6.800781-11.199218 20.71875-20.722656 13.28125-13.277344 19.039062 11.519531c.800782-.402344 1.601563-.640625 2.398438-.960937l5.441406-21.679688h48l5.441406 21.679688c.796875.320312 1.597656.558593 2.398438.960937l19.039062-11.519531 34 34-11.519531 19.039062c.402344.800782.640625 1.601563.960937 2.398438zm0 0" fill="#fcd770"/><path d="m392 56c26.480469 0 48 21.519531 48 48s-21.519531 48-48 48-48-21.519531-48-48 21.519531-48 48-48zm0 0" fill="#ffeaa7"/><g fill="#1e1713"><path d="m496 73.753906-19.328125-4.824218 10.25-17.074219-42.777344-42.777344-17.082031 10.257813-4.816406-19.335938h-60.492188l-4.824218 19.328125-17.074219-10.25-15.136719 15.128906c-1.566406-.101562-3.125-.207031-4.71875-.207031-83.816406 0-152 68.183594-152 152 0 30.847656 9.296875 59.542969 25.152344 83.535156l-21.152344 21.152344-11.535156-11.535156-160.464844 135.128906v55.03125l36.6875 36.6875h55.03125l135.128906-160.464844-11.535156-11.535156 21.152344-21.152344c23.992187 15.855469 52.6875 25.152344 83.535156 25.152344 83.816406 0 152-68.183594 152-152 0-1.59375-.105469-3.152344-.207031-4.71875l15.136719-15.136719-10.25-17.074219 19.320312-4.824218zm-156.152344 125.175782 17.074219-10.25 4.832031 19.320312h56.988282c-13.527344 41.9375-52.742188 72-98.734376 72-57.34375 0-104-46.65625-104-104 0-45.992188 30.0625-85.207031 72-98.734375v56.992187l19.328126 4.820313-10.246094 17.074219zm-320.03125 209.574218 113.664063-95.710937 49.726562 49.726562-95.710937 113.664063zm-3.816406 44.183594v-25.375l52.6875 52.6875h-25.375zm177.550781-102.449219-47.789062-47.789062 13.773437-11.601563 45.617188 45.617188zm10.449219-37.550781-20.6875-20.6875 19.40625-19.40625c6.21875 7.535156 13.152344 14.460938 20.6875 20.6875zm116-.6875c-74.992188 0-136-61.007812-136-136 0-71.054688 54.792969-129.464844 124.335938-135.40625l-11.265626 11.261719 3.546876 5.898437c-57.351563 9.300782-100.617188 58.933594-100.617188 118.246094 0 66.167969 53.832031 120 120 120 59.3125 0 108.945312-43.265625 118.246094-100.617188l5.90625 3.546876 11.253906-11.257813c-5.949219 69.535156-64.351562 124.328125-135.40625 124.328125zm160-190.246094-15.59375 3.894532-4.269531 1.648437-3.730469 9.101563 10.371094 17.28125-25.105469 25.105468-17.273437-10.371094-9.765626 4.019532-4.878906 19.566406h-35.507812l-4.886719-19.566406-9.773437-4.019532-17.265626 10.371094-25.105468-25.105468 10.371094-17.28125-4-9.75-19.585938-4.894532v-35.507812l19.566406-4.886719 4.019532-9.773437-10.371094-17.265626 25.105468-25.105468 17.265626 10.371094 9.773437-4.019532 4.886719-19.566406h35.507812l4.886719 19.566406 9.765625 4.019532 17.273438-10.371094 25.105468 25.105468-10.371094 17.265626 4.019532 9.773437 19.566406 4.886719zm0 0"/><path d="m112 352h-3.3125l-44.6875 44.6875v3.3125c0 17.648438 14.351562 32 32 32h3.3125l44.6875-44.6875v-3.3125c0-17.648438-14.351562-32-32-32zm-19.023438 63.710938c-6.402343-1.222657-11.457031-6.285157-12.679687-12.679688l11.710937-11.710938 12.679688 12.679688zm23.023438-23.023438-12.6875-12.6875 11.710938-11.710938c6.402343 1.222657 11.457031 6.285157 12.679687 12.679688zm0 0"/><path d="m392 48c-30.878906 0-56 25.121094-56 56s25.121094 56 56 56 56-25.121094 56-56-25.121094-56-56-56zm0 96c-22.054688 0-40-17.945312-40-40s17.945312-40 40-40 40 17.945312 40 40-17.945312 40-40 40zm0 0"/><path d="m249.601562 123.183594 12.796876 9.609375c4.097656-5.457031 8.945312-10.304688 14.410156-14.402344l-9.609375-12.796875c-6.679688 5.015625-12.589844 10.933594-17.597657 17.589844zm0 0"/><path d="m253.992188 147.199219-14.664063-6.398438c-4.863281 11.121094-7.328125 22.96875-7.328125 35.199219 0 23.832031 9.375 46.152344 26.390625 62.839844l11.203125-11.425782c-13.929688-13.652343-21.59375-31.910156-21.59375-51.414062 0-10.015625 2.015625-19.703125 5.992188-28.800781zm0 0"/><path d="m392 80c-13.230469 0-24 10.769531-24 24s10.769531 24 24 24 24-10.769531 24-24-10.769531-24-24-24zm0 32c-4.40625 0-8-3.59375-8-8s3.59375-8 8-8 8 3.59375 8 8-3.59375 8-8 8zm0 0"/></g></svg>