<svg height="512pt" viewBox="0 -26 512 512" width="512pt" xmlns="http://www.w3.org/2000/svg"><g fill-rule="evenodd"><path d="m146 240.222656v-142.222656h-120v320h120zm0 0" fill="#ebebeb"/><path d="m201 334.109375c-10.125 0-18.332031-8.207031-18.332031-18.332031 0 10.125-8.207031 18.332031-18.332031 18.332031-10.128907 0-18.335938-8.207031-18.335938-18.332031v102.222656h220v-102.222656c0 10.125-8.207031 18.332031-18.332031 18.332031s-18.332031-8.207031-18.332031-18.332031c0 10.125-8.210938 18.332031-18.335938 18.332031s-18.332031-8.207031-18.332031-18.332031c0 10.125-8.207031 18.332031-18.332031 18.332031s-18.332032-8.207031-18.332032-18.332031c0 10.125-8.210937 18.332031-18.335937 18.332031s-18.332031-8.207031-18.332031-18.332031c-.003907 10.125-8.210938 18.332031-18.335938 18.332031zm0 0" fill="#8eecf0"/><path d="m366 240.222656v177.777344h120v-193.335938c0-11-9-20-20-20h-80c-11 0-20 9-20 20zm0 0" fill="#c2c2c2"/><path d="m386 204.664062h80v-71.109374h-80zm0 0" fill="#ebebeb"/><path d="m406 133.554688h40v-51.113282c0-11-9-20-20-20s-20 9-20 20zm0 0" fill="#c2c2c2"/><path d="m291.554688 240.222656c0-19.636718-15.917969-35.558594-35.554688-35.558594s-35.554688 15.921876-35.554688 35.558594h-74.445312v35.554688h220v-35.554688zm0 0" fill="#ff836c"/><path d="m182.667969 315.777344v-40h-36.667969v40c0 10.125 8.207031 18.332031 18.332031 18.332031s18.335938-8.207031 18.335938-18.332031zm0 0" fill="#fd4848"/><path d="m256 418h-230c-8.796875 0-16 7.199219-16 16v16h492v-16c0-8.800781-7.199219-16-16-16zm0 0" fill="#999"/><path d="m219.332031 315.777344v-40h-36.664062v40c0 10.125 8.207031 18.332031 18.332031 18.332031s18.332031-8.207031 18.332031-18.332031zm0 0" fill="#ffd777"/><path d="m256 315.777344v-40h-36.667969v40c0 10.125 8.210938 18.332031 18.335938 18.332031s18.332031-8.207031 18.332031-18.332031zm0 0" fill="#fd4848"/><path d="m292.667969 315.777344v-40h-36.667969v40c0 10.125 8.207031 18.332031 18.335938 18.332031 10.125 0 18.332031-8.207031 18.332031-18.332031zm0 0" fill="#ffd777"/><path d="m329.335938 315.777344v-40h-36.667969v40c0 10.125 8.207031 18.332031 18.332031 18.332031s18.335938-8.207031 18.335938-18.332031zm0 0" fill="#fd4848"/><path d="m366 315.777344v-40h-36.664062v40c0 10.125 8.207031 18.332031 18.332031 18.332031s18.332031-8.207031 18.332031-18.332031zm0 0" fill="#ffd777"/><path d="m299.027344 89.265625c0-18.242187-14.785156-33.027344-33.027344-33.027344-18.238281 0-33.027344 14.785157-33.027344 33.027344 0 18.238281 14.789063 33.023437 33.027344 33.023437 18.242188 0 33.027344-14.785156 33.027344-33.023437zm-14.765625-77.117187-1.09375 12.75 8.105469 3.355468 8.101562 3.355469 8.238281-9.785156c10.300781 6.34375 19.222657 15.078125 25.835938 25.824219l-9.792969 8.246093 3.355469 8.097657 3.355469 8.105468 12.757812-1.09375c2.921875 12.273438 2.789062 24.761719-.011719 36.527344l-12.746093-1.09375-3.355469 8.101562-3.355469 8.105469 9.785156 8.238281c-6.339844 10.296876-15.078125 19.222657-25.820312 25.835938l-8.25-9.792969-16.203125 6.710938 1.09375 12.753906c-6.074219 1.445313-12.195313 2.144531-18.261719 2.140625-6.066406.003906-12.191406-.695312-18.261719-2.140625l1.089844-12.753906-16.203125-6.710938-8.246094 9.792969c-10.742187-6.613281-19.480468-15.539062-25.820312-25.835938l9.785156-8.238281-3.355469-8.105469-3.359375-8.101562-12.742187 1.09375c-2.800781-11.765625-2.933594-24.253906-.011719-36.527344l12.757812 1.09375 3.355469-8.105468 3.355469-8.097657-9.792969-8.246093c6.613281-10.746094 15.535157-19.480469 25.835938-25.824219l8.238281 9.785156 8.101562-3.355469 8.105469-3.355468-1.09375-12.75c5.941407-1.414063 12.070313-2.148438 18.261719-2.148438 6.191406.003906 12.320312.734375 18.261719 2.148438zm0 0" fill="#fd4848"/></g><path d="m496 410v-185.335938c0-13.035156-8.359375-24.152343-20-28.277343v-62.832031c0-5.519532-4.476562-10-10-10h-10v-41.113282c0-13.089844-8.433594-24.242187-20.152344-28.328125.09375-.546875.152344-1.101562.152344-1.671875v-26.28125c0-5.523437-4.476562-10-10-10s-10 4.476563-10 10v26.28125c0 .570313.058594 1.125.148438 1.667969-11.714844 4.085937-20.148438 15.242187-20.148438 28.332031v41.113282h-10c-5.523438 0-10 4.476562-10 10v62.832031c-11.640625 4.125-20 15.242187-20 28.277343v5.558594h-55.550781c-4.570313-20.324218-22.765625-35.558594-44.449219-35.558594s-39.878906 15.230469-44.449219 35.558594h-55.550781v-132.222656c0-5.523438-4.476562-10-10-10h-35.515625c-5.523437 0-10 4.476562-10 10 0 5.519531 4.476563 10 10 10h25.515625v300h-100v-300h5.519531c5.519531 0 10-4.480469 10-10 0-5.523438-4.480469-10-10-10h-15.519531c-5.523438 0-10 4.476562-10 10v310c0 .65625.066406 1.300781.191406 1.925781-9.488281 3.878907-16.191406 13.207031-16.191406 24.074219v16c0 5.519531 4.476562 10 10 10h492c5.523438 0 10-4.480469 10-10v-16c0-10.796875-6.613281-20.074219-16-24zm-80-327.558594c0-5.511718 4.484375-10 10-10s10 4.488282 10 10v41.113282h-20zm40 61.113282v51.109374h-60v-51.109374zm-300 142.222656h16.667969v30c0 4.59375-3.738281 8.332031-8.335938 8.332031-4.59375 0-8.332031-3.738281-8.332031-8.332031zm36.667969 0h16.664062v30c0 4.59375-3.738281 8.332031-8.332031 8.332031s-8.332031-3.738281-8.332031-8.332031zm36.664062 0h16.667969v30c0 4.59375-3.738281 8.332031-8.332031 8.332031s-8.332031-3.738281-8.332031-8.332031v-30zm126.667969 30c0 4.59375-3.738281 8.332031-8.332031 8.332031-4.597657 0-8.335938-3.738281-8.335938-8.332031v-30h16.667969zm-36.667969 0c0 4.59375-3.738281 8.332031-8.332031 8.332031s-8.332031-3.738281-8.332031-8.332031v-30h16.667969v30zm-36.664062 0c0 4.59375-3.738281 8.332031-8.335938 8.332031-4.59375 0-8.332031-3.738281-8.332031-8.332031v-30h16.667969zm-16.667969 27.074218c2.636719.816407 5.433594 1.257813 8.332031 1.257813 6.988281 0 13.390625-2.539063 18.335938-6.746094 4.945312 4.207031 11.347656 6.746094 18.332031 6.746094s13.386719-2.539063 18.332031-6.746094c4.945313 4.207031 11.347657 6.746094 18.332031 6.746094 2.898438 0 5.699219-.4375 8.335938-1.253906v65.140625h-90zm-110-92.632812h64.445312c5.523438 0 10-4.476562 10-10 0-14.089844 11.464844-25.554688 25.554688-25.554688 14.09375 0 25.554688 11.464844 25.554688 25.554688 0 5.523438 4.480468 10 10 10h64.445312v15.558594h-200zm0 92.640625c2.636719.8125 5.433594 1.25 8.332031 1.25 6.988281 0 13.386719-2.539063 18.332031-6.746094 4.945313 4.207031 11.347657 6.746094 18.335938 6.746094 6.984375 0 13.386719-2.539063 18.332031-6.746094 4.945313 4.207031 11.347657 6.746094 18.332031 6.746094 2.902344 0 5.699219-.441406 8.332032-1.257813v65.144532h-90v-65.136719zm336 97.140625h-472v-6c0-3.253906 2.746094-6 6-6h380c5.523438 0 10-4.480469 10-10 0-5.523438-4.476562-10-10-10h-30v-183.335938c0-5.511718 4.484375-10 10-10h80c5.515625 0 10 4.488282 10 10v183.335938h-1.035156c-5.523438 0-10 4.476562-10 10 0 5.519531 4.476562 10 10 10h11.035156c3.253906 0 6 2.746094 6 6zm0 0"/><path d="m446.234375 408h-.265625c-5.523438 0-10 4.476562-10 10 0 5.519531 4.476562 10 10 10h.265625c5.523437 0 10-4.480469 10-10 0-5.523438-4.476563-10-10-10zm0 0"/><path d="m114 372.441406h-56c-5.523438 0-10 4.480469-10 10 0 5.523438 4.476562 10 10 10h56c5.523438 0 10-4.476562 10-10 0-5.519531-4.476562-10-10-10zm0 0"/><path d="m114 336.886719h-56c-5.523438 0-10 4.476562-10 10 0 5.523437 4.476562 10 10 10h56c5.523438 0 10-4.476563 10-10 0-5.523438-4.476562-10-10-10zm0 0"/><path d="m114 301.332031h-56c-5.523438 0-10 4.476563-10 10 0 5.519531 4.476562 10 10 10h56c5.523438 0 10-4.480469 10-10 0-5.523437-4.476562-10-10-10zm0 0"/><path d="m114 265.777344h-56c-5.523438 0-10 4.476562-10 10 0 5.519531 4.476562 10 10 10h56c5.523438 0 10-4.480469 10-10 0-5.523438-4.476562-10-10-10zm0 0"/><path d="m114 230.21875h-56c-5.523438 0-10 4.480469-10 10 0 5.523438 4.476562 10 10 10h56c5.523438 0 10-4.476562 10-10 0-5.519531-4.476562-10-10-10zm0 0"/><path d="m114 194.664062h-56c-5.523438 0-10 4.480469-10 10 0 5.523438 4.476562 10 10 10h56c5.523438 0 10-4.476562 10-10 0-5.519531-4.476562-10-10-10zm0 0"/><path d="m114 159.109375h-56c-5.523438 0-10 4.476563-10 10s4.476562 10 10 10h56c5.523438 0 10-4.476563 10-10s-4.476562-10-10-10zm0 0"/><path d="m48 133.554688c0 5.523437 4.476562 10 10 10h56c5.523438 0 10-4.476563 10-10 0-5.523438-4.476562-10-10-10h-56c-5.523438 0-10 4.476562-10 10zm0 0"/><path d="m263.066406 233.148438c-3.902344-3.90625-10.234375-3.90625-14.140625 0-3.90625 3.902343-3.90625 10.234374 0 14.140624s10.238281 3.90625 14.140625 0c3.90625-3.90625 3.90625-10.238281 0-14.140624zm0 0"/><path d="m454 372.441406h-56c-5.523438 0-10 4.480469-10 10 0 5.523438 4.476562 10 10 10h56c5.523438 0 10-4.476562 10-10 0-5.519531-4.476562-10-10-10zm0 0"/><path d="m454 336.886719h-56c-5.523438 0-10 4.476562-10 10 0 5.523437 4.476562 10 10 10h56c5.523438 0 10-4.476563 10-10 0-5.523438-4.476562-10-10-10zm0 0"/><path d="m454 301.332031h-56c-5.523438 0-10 4.476563-10 10 0 5.519531 4.476562 10 10 10h56c5.523438 0 10-4.480469 10-10 0-5.523437-4.476562-10-10-10zm0 0"/><path d="m454 265.777344h-56c-5.523438 0-10 4.476562-10 10 0 5.519531 4.476562 10 10 10h56c5.523438 0 10-4.480469 10-10 0-5.523438-4.476562-10-10-10zm0 0"/><path d="m454 230.21875h-56c-5.523438 0-10 4.480469-10 10 0 5.523438 4.476562 10 10 10h56c5.523438 0 10-4.476562 10-10 0-5.519531-4.476562-10-10-10zm0 0"/><path d="m415.554688 179.109375h20.890624c5.523438 0 10-4.476563 10-10s-4.476562-10-10-10h-20.890624c-5.523438 0-10 4.476563-10 10s4.476562 10 10 10zm0 0"/><path d="m70.25 108h.269531c5.523438 0 10-4.480469 10-10 0-5.523438-4.476562-10-10-10h-.269531c-5.523438 0-10 4.476562-10 10 0 5.519531 4.476562 10 10 10zm0 0"/><path d="m189.742188 117.492188 5.453124-.464844 1.109376 2.679687-4.1875 3.523438c-3.789063 3.191406-4.671876 8.675781-2.074219 12.894531 7.269531 11.800781 17.328125 21.863281 29.09375 29.109375 4.21875 2.59375 9.699219 1.710937 12.894531-2.074219l3.53125-4.199218 2.679688 1.113281-.46875 5.460937c-.421876 4.933594 2.832031 9.433594 7.648437 10.578125 6.726563 1.601563 13.636719 2.414063 20.53125 2.414063h.085937c6.90625 0 13.816407-.8125 20.542969-2.414063 4.816407-1.144531 8.070313-5.644531 7.644531-10.582031l-.46875-5.457031 2.679688-1.113281 3.535156 4.199218c3.191406 3.785156 8.675782 4.671875 12.890625 2.074219 11.769531-7.246094 21.828125-17.3125 29.09375-29.109375 2.597657-4.21875 1.714844-9.703125-2.074219-12.894531l-4.1875-3.523438 1.109376-2.679687 5.453124.464844c4.933594.433593 9.4375-2.828126 10.585938-7.648438 3.207031-13.480469 3.207031-27.714844.007812-41.15625-1.144531-4.816406-5.644531-8.054688-10.582031-7.648438l-5.464843.46875-1.109376-2.679687 4.191407-3.527344c3.789062-3.191406 4.671875-8.675781 2.074219-12.894531-7.242188-11.765625-17.304688-21.828125-29.101563-29.09375-4.21875-2.597656-9.703125-1.71875-12.894531 2.070312l-3.527344 4.1875-2.679688-1.109374.46875-5.457032c.421876-4.933594-2.832031-9.4375-7.652343-10.582031-6.742188-1.605469-13.664063-2.41796875-20.566407-2.421875-.003906 0-.007812 0-.011718 0-6.90625.00390625-13.824219.816406-20.570313 2.421875-4.816406 1.144531-8.070312 5.648437-7.648437 10.582031l.46875 5.457032-2.683594 1.109374-3.523438-4.1875c-3.195312-3.789062-8.675781-4.671874-12.894531-2.070312-11.796875 7.265625-21.863281 17.328125-29.105469 29.09375-2.597656 4.21875-1.714843 9.703125 2.074219 12.894531l4.191407 3.527344-1.109376 2.679687-5.464843-.46875c-4.941407-.421874-9.433594 2.832032-10.582031 7.648438-3.199219 13.441406-3.195313 27.675781.011718 41.15625 1.144532 4.820312 5.640625 8.089844 10.582032 7.648438zm7.410156-35.746094 3.628906.3125c4.335938.371094 8.425781-2.109375 10.089844-6.136719l6.710937-16.199219c1.667969-4.027344.539063-8.671875-2.796875-11.480468l-2.78125-2.339844c3.144532-3.910156 6.71875-7.480469 10.636719-10.628906l2.335937 2.777343c2.808594 3.332031 7.453126 4.464844 11.476563 2.796875l16.207031-6.710937c4.023438-1.667969 6.507813-5.75 6.136719-10.09375l-.3125-3.628907c4.996094-.550781 10.035156-.550781 15.03125 0l-.308594 3.628907c-.375 4.339843 2.109375 8.425781 6.136719 10.09375l16.203125 6.710937c4.027344 1.667969 8.667969.535156 11.476563-2.796875l2.339843-2.777343c3.917969 3.148437 7.488281 6.71875 10.632813 10.628906l-2.78125 2.339844c-3.332032 2.808593-4.464844 7.453124-2.796875 11.480468l6.710937 16.199219c1.667969 4.027344 5.75 6.515625 10.09375 6.136719l3.628906-.3125c.539063 4.988281.539063 10.042968-.007812 15.039062l-3.617188-.3125c-4.335937-.386718-8.425781 2.109375-10.09375 6.136719l-6.714843 16.203125c-1.667969 4.027344-.535157 8.671875 2.796875 11.476562l2.78125 2.339844c-3.148438 3.917969-6.71875 7.492188-10.628906 10.640625l-2.34375-2.785156c-2.808594-3.335937-7.449219-4.46875-11.476563-2.796875l-16.203125 6.707031c-4.023438 1.667969-6.507812 5.753907-6.136719 10.09375l.3125 3.632813c-2.496093.273437-5.03125.4375-7.523437.410156-.007813 0-.019532 0-.03125 0-2.496094 0-4.996094-.136719-7.480469-.410156l.3125-3.632813c.371094-4.339843-2.113281-8.425781-6.136719-10.09375l-16.203125-6.707031c-4.027343-1.667969-8.667969-.539062-11.476562 2.796875l-2.34375 2.785156c-3.910157-3.148437-7.480469-6.722656-10.628907-10.640625l2.78125-2.339844c3.332032-2.804687 4.464844-7.449218 2.796876-11.476562l-6.714844-16.203125c-1.667969-4.027344-5.753906-6.523437-10.09375-6.136719l-3.617188.3125c-.546875-4.996094-.546875-10.050781-.007812-15.039062zm0 0"/><path d="m266 132.289062c23.726562 0 43.027344-19.300781 43.027344-43.023437 0-23.726563-19.300782-43.027344-43.027344-43.027344-23.722656 0-43.027344 19.300781-43.027344 43.027344 0 23.722656 19.304688 43.023437 43.027344 43.023437zm0-66.050781c12.699219 0 23.027344 10.328125 23.027344 23.023438 0 12.699219-10.328125 23.027343-23.027344 23.027343-12.695312 0-23.027344-10.328124-23.027344-23.027343 0-12.695313 10.332032-23.023438 23.027344-23.023438zm0 0"/></svg>